# xmcd
#
# Track frame offsets:
# 150
# 20918
# 30575
# 66449
# 81031
# 97358
# 122353
# 145109
# 164432
# 186401
#
# Disc length: 2910 seconds
#
#
# Revision: 0
# Processed by: cddbd v1.5.1PL0 Copyright (c) Steve Scherf et al.
# Submitted via: FreeRIP 2.70 
#
DISCID=8d0b5c0a
DTITLE=Tractors - Fast Girl
DYEAR=1900
DGENRE=Country
TTITLE0=Babalou
TTITLE1=Can't Get Nowhere
TTITLE2=Ready To Cry
TTITLE3=Nine Eleven
TTITLE4=It's A Beautiful Thing
TTITLE5=Computer Controlled
TTITLE6=Fast Girl
TTITLE7=Don't Ever Take My Picture Down
TTITLE8=Higher Ground
TTITLE9=A Little Place Of Our Own/On The Road Again
EXTD=
EXTT0=
EXTT1=
EXTT2=
EXTT3=
EXTT4=
EXTT5=
EXTT6=
EXTT7=
EXTT8=
EXTT9=
PLAYORDER=
